0
SECTION
2
HEADER
9
$INSUNITS
70
4
0
ENDSEC
0
SECTION
2
TABLES
0
TABLE
2
LTYPE
0
LTYPE
72
65
70
64
2
CONTINUOUS
3
______
73
0
40
0
0
ENDTAB
0
TABLE
2
LAYER
0
ENDTAB
0
ENDSEC
0
SECTION
2
ENTITIES
0
LINE
8
0
10
65
20
-180.75
11
65
21
-91.5
0
LINE
8
0
10
66
20
-90.5
11
312.7681741
21
-90.5
0
LINE
8
0
10
327.7318259
20
-90.5
11
340.5
21
-90.5
0
LINE
8
0
10
341.5
20
-91.5
11
341.5
21
-185
0
LINE
8
0
10
340.5
20
-186
11
279.5
21
-186
0
LINE
8
0
10
278.5
20
-185
11
278.5
21
-182.75
0
LINE
8
0
10
277.5
20
-181.75
11
66
21
-181.75
0
ARC
8
0
10
66
20
-91.5
40
1
50
90
51
180
0
ARC
8
0
10
340.5
20
-91.5
40
1
50
0
51
90
0
ARC
8
0
10
340.5
20
-185
40
1
50
270
51
0
0
ARC
8
0
10
279.5
20
-185
40
1
50
180
51
270
0
ARC
8
0
10
277.5
20
-182.75
40
1
50
0
51
90
0
ARC
8
0
10
66
20
-180.75
40
1
50
180
51
270
0
LINE
8
0
10
326.875
20
-88.8671567
11
326.875
21
-87.125
0
LINE
8
0
10
325.875
20
-86.125
11
324.89
21
-86.125
0
LINE
8
0
10
315.61
20
-86.125
11
314.625
21
-86.125
0
LINE
8
0
10
313.625
20
-87.125
11
313.625
21
-88.8671567
0
ARC
8
0
10
325.875
20
-87.125
40
1
50
0
51
90
0
ARC
8
0
10
314.625
20
-87.125
40
1
50
90
51
180
0
ARC
8
0
10
309.75
20
-87.875
40
4
50
678.9855002
51
705.638489
0
ARC
8
0
10
330.75
20
-87.875
40
4
50
554.361511
51
581.0144998
0
LINE
8
0
10
315.61
20
-92.285
11
324.89
21
-92.285
0
LINE
8
0
10
324.89
20
-92.285
11
324.89
21
-86.125
0
LINE
8
0
10
315.61
20
-86.125
11
315.61
21
-92.285
0
CIRCLE
8
0
10
108
20
-96
40
2.5
0
CIRCLE
8
0
10
186
20
-96
40
2.5
0
CIRCLE
8
0
10
222
20
-96
40
2.5
0
CIRCLE
8
0
10
70.625
20
-159.75
40
2.5
0
CIRCLE
8
0
10
187.5
20
-151.25
40
2.5
0
CIRCLE
8
0
10
223.5
20
-151.25
40
2.5
0
CIRCLE
8
0
10
300
20
-96
40
2.5
0
CIRCLE
8
0
10
318
20
-172.5
40
2.5
0
ENDSEC
0
EOF